<svg xmlns="http://www.w3.org/2000/svg" width="478" height="174"><g fill="none" fill-rule="evenodd"><g fill="#feb563"><circle cx="204" cy="36" r="2"/><circle cx="272" cy="36" r="2"/><circle cx="340" cy="36" r="2"/><circle cx="408" cy="36" r="2"/><circle cx="476" cy="36" r="2"/><circle cx="170" cy="36" r="2"/><circle cx="238" cy="36" r="2"/><circle cx="306" cy="36" r="2"/><circle cx="374" cy="36" r="2"/><circle cx="442" cy="36" r="2"/></g><g fill="#feb563"><circle cx="204" cy="104" r="2"/><circle cx="272" cy="104" r="2"/><circle cx="340" cy="104" r="2"/><circle cx="408" cy="104" r="2"/><circle cx="476" cy="104" r="2"/><circle cx="170" cy="104" r="2"/><circle cx="238" cy="104" r="2"/><circle cx="306" cy="104" r="2"/><circle cx="374" cy="104" r="2"/><circle cx="442" cy="104" r="2"/></g><g fill="#ffac50"><circle cx="204" cy="172" r="2"/><circle cx="272" cy="172" r="2"/><circle cx="340" cy="172" r="2"/><circle cx="408" cy="172" r="2"/><circle cx="476" cy="172" r="2"/><circle cx="170" cy="172" r="2"/><circle cx="238" cy="172" r="2"/><circle cx="306" cy="172" r="2"/><circle cx="374" cy="172" r="2"/><circle cx="442" cy="172" r="2"/><circle cx="204" cy="2" r="2"/><circle cx="272" cy="2" r="2"/><circle cx="340" cy="2" r="2"/><circle cx="408" cy="2" r="2"/><circle cx="476" cy="2" r="2"/><circle cx="170" cy="2" r="2"/><circle cx="238" cy="2" r="2"/><circle cx="306" cy="2" r="2"/><circle cx="374" cy="2" r="2"/><circle cx="442" cy="2" r="2"/><circle cx="204" cy="70" r="2"/><circle cx="272" cy="70" r="2"/><circle cx="340" cy="70" r="2"/><circle cx="408" cy="70" r="2"/><circle cx="476" cy="70" r="2"/><circle cx="170" cy="70" r="2"/><circle cx="238" cy="70" r="2"/><circle cx="306" cy="70" r="2"/><circle cx="374" cy="70" r="2"/><circle cx="442" cy="70" r="2"/><circle cx="204" cy="138" r="2"/><circle cx="272" cy="138" r="2"/><circle cx="340" cy="138" r="2"/><circle cx="408" cy="138" r="2"/><circle cx="476" cy="138" r="2"/><circle cx="170" cy="138" r="2"/><circle cx="238" cy="138" r="2"/><circle cx="306" cy="138" r="2"/><circle cx="374" cy="138" r="2"/><circle cx="442" cy="138" r="2"/></g><g fill="#feb563"><circle cx="2" cy="36" r="2"/><circle cx="70" cy="36" r="2"/><circle cx="138" cy="36" r="2"/><circle cx="36" cy="36" r="2"/><circle cx="104" cy="36" r="2"/></g><g fill="#feb563"><circle cx="2" cy="104" r="2"/><circle cx="70" cy="104" r="2"/><circle cx="138" cy="104" r="2"/><circle cx="36" cy="104" r="2"/><circle cx="104" cy="104" r="2"/></g><g fill="#ffac50"><circle cx="2" cy="172" r="2"/><circle cx="70" cy="172" r="2"/><circle cx="138" cy="172" r="2"/><circle cx="36" cy="172" r="2"/><circle cx="104" cy="172" r="2"/></g><g fill="#ffac50"><circle cx="2" cy="2" r="2"/><circle cx="70" cy="2" r="2"/><circle cx="138" cy="2" r="2"/><circle cx="36" cy="2" r="2"/><circle cx="104" cy="2" r="2"/></g><g fill="#ffac50"><circle cx="2" cy="70" r="2"/><circle cx="70" cy="70" r="2"/><circle cx="138" cy="70" r="2"/><circle cx="36" cy="70" r="2"/><circle cx="104" cy="70" r="2"/></g><g fill="#ffac50"><circle cx="2" cy="138" r="2"/><circle cx="70" cy="138" r="2"/><circle cx="138" cy="138" r="2"/><circle cx="36" cy="138" r="2"/><circle cx="104" cy="138" r="2"/></g></g></svg>