<svg xmlns="http://www.w3.org/2000/svg" width="1440" height="239"><g fill="none" fill-rule="evenodd" stroke="#fa9300" opacity=".2"><path d="M48.205 183.84S411.098.444 858.303 110.173c493.906 121.188 923.098 126.755 1036.26-42.336"/><path d="M1923.505 64.085c-37.221 55.617-129.98 115.884-255.971 133.865-207.416 29.74-507.97-18.076-808.065-99.348-171.051-46.325-318.081-23.7-429.833-5.026-8.732 1.46-17.229 3.297-25.859 4.913-210.45 39.406-375.99 90.026-375.99 90.026"/><path d="M1952.45 60.333c-31.019 46.348-126.581 127.716-256.261 146.894-218.43 32.524-539.54-33.093-835.554-120.195-184.658-54.335-331.738-5.59-430.948 17.653-8.597 2.013-16.805 4.615-25.416 6.76-206.657 51.455-396.9 81.744-396.9 81.744"/><path d="M1981.391 56.582c-24.813 37.079-123.176 139.546-256.549 159.92C1495.398 251.81 1153.954 167.823 861.8 75.46c-198.156-62.645-345.092 13.379-432.06 40.33-8.465 2.622-16.387 5.928-24.976 8.607-202.955 63.324-417.812 73.466-417.812 73.466"/><path d="M2010.333 52.83c-18.61 27.809-119.77 151.377-256.835 172.947-240.457 38.095-602.003-64.692-890.533-161.887-211.494-71.244-357.937 33.107-433.173 63.008-8.289 3.294-15.97 7.233-24.533 10.456-199.382 75.036-438.726 65.183-438.726 65.183"/><path d="M2039.275 49.08c-12.407 18.539-116.366 163.206-257.124 185.972-251.472 40.88-632.876-81.034-918.022-182.733-224.635-80.118-370.088 53.432-434.285 85.685-8.033 4.036-15.563 8.535-24.088 12.304-195.964 86.63-459.64 56.904-459.64 56.904"/><path d="M2068.22 45.328c-6.203 9.27-112.966 175.037-257.416 199-262.483 43.664-663.519-97.623-945.509-203.579-237.554-89.262-381.43 74.14-435.397 108.362-7.649 4.851-15.163 9.83-23.648 14.153C213.552 261.399-74.3 211.886-74.3 211.886"/><path d="M2097.162 41.577S1987.6 228.445 1839.459 253.603c-273.5 46.45-693.931-114.396-972.997-224.425-250.226-98.657-391.882 94.982-436.51 131.04-7.095 5.731-14.773 11.125-23.207 16C217.153 285.793-94.718 216.56-94.718 216.56"/></g></svg>