<svg xmlns="http://www.w3.org/2000/svg" width="833" height="751"><linearGradient id="a" x1="101.494%" x2="5.758%" y1="18.324%" y2="36.801%"><stop offset="0" stop-color="#ffd13d"/><stop offset="1" stop-color="#ff962c"/></linearGradient><path fill="url(#a)" fill-rule="evenodd" d="M703.73 68.784c-8.027 41.556 12.426 83.406 50.145 102.604l223.852 113.937a400 400 0 0 0 2.45 1.236l209.158 104.658c49.264 24.65 69.217 84.57 44.566 133.835a99.744 99.744 0 0 1-7.015 11.886c-29.432 42.795-18.598 101.346 24.197 130.777a94.043 94.043 0 0 0 16.155 8.914l248.987 107.012c95.588 41.083 206.383-3.102 247.466-98.69a188.387 188.387 0 0 0 9.169-122.093L1649.038 89.818c-11.33-43.283-50.031-73.773-94.763-74.658L788.749.017c-41.296-.817-77.186 28.212-85.02 68.767z" transform="translate(-702 -40)"/></svg>