<svg xmlns="http://www.w3.org/2000/svg" xmlns:xlink="http://www.w3.org/1999/xlink" width="1260" height="207"><defs><path id="b" d="M127.4 105.6c-3 7.2-5.8 12.8-10.6 19-6.6 8.4-22 24-50.4 24-4.8 0-16.2-.4-28.4-6C22 135 .4 115.8.4 74c0-7.6 0-27.8 13-46.4 6.8-9.8 23-27.4 54-27.4 27 0 41.2 13.4 47.6 22.4 4.6 6.8 7.4 13.8 9.8 21.2l-26.2 6.8c-.2-1.8-1-6.4-3.6-11.2-5.4-10-16-15.2-27.2-15-8 0-13.6 2.4-16.4 3.8C41 33.4 29 47 29 73.4c0 4 .2 20.8 8.4 33.4 2.8 4.2 6.2 7.8 10.2 10.4 8.4 5.8 16.8 6.4 20.6 6.4 11 0 19.2-4.4 26-12.8 2.8-3.4 5-7.6 5.6-8.6.8-1.8 1.4-3.4 2.6-7zM230.6 145h-28.4l-.6-7.8c-3.8 3.2-7.2 4.8-9.2 5.6-6.6 3-12.8 4.6-20.2 4.6-4.8 0-22.8-.6-32-15.4-1.6-2.6-4.6-8-4.4-16 0-5.6 1.4-16.8 13.6-25 8.2-5.6 16-6.8 25.2-8.6 14.8-3 20.2-4.2 27.6-6.8 0-2.6-.2-5.8-1.4-8.2-2-3.8-7-6.8-15.8-6.8-9.2 0-15 2.8-17.6 6.2-2.8 3.4-2.6 7.4-2.6 8.8l-24.4-1.4c.2-4.4 1-15 10.8-23 6.2-5.2 15.6-9.2 33-9.2 16.4 0 26 3.4 32.2 7.8 4.2 3 6.4 6.4 7.2 8 2.6 5.2 2.6 12.2 2.6 17.8v53.2c0 7.6.4 9.8 4.4 16.2zm-28.4-38.8v-11c-4 2-9.2 4-19 5.6-5.4 1-11.2 1.2-16.2 4.2-3.4 2.2-5.8 5.6-5.8 10 0 6 4.4 11.8 16.4 11.8 13.2 0 21-6.8 23.2-11.4 1.6-3.2 1.4-6 1.4-9.2zm134.2 7.6c0 4.8-1.2 9.4-3.4 13.6-4.8 9.2-17.2 20.6-41.6 20.6-18.8 0-32.2-6.4-38.4-10.2-3.4-2.2-6.6-4.8-9.6-7.8l18-14.6c.8 1 2 2.8 4.6 5 8.6 7.4 21.4 7.8 24.2 7.8 6 0 13-1.4 17-6 1.6-1.6 2.6-3.8 2.6-5.8 0-.8-.2-2.4-1.6-4.2-2.6-3.6-5.8-3.8-13.2-5.4-6.6-1.4-13.2-2.2-19.6-3.8-4.4-1.2-27.6-6.8-27.6-28.4 0-7.6 3.2-13.2 4.6-15.4 5-7.8 16.8-17.2 38.4-17.2 7.8 0 28 1.2 43 18.6l-17 15.8c-2-4.2-4.6-6.6-6.2-8-6.2-5.4-12.8-7.2-21-7.2-1 0-7.8 0-12.2 3-3.6 2.4-4.4 5.6-4.4 7.4.2 3.4 2.6 5.8 3.2 6.2 2.6 2 9.2 3.6 17.2 5 5.4 1 10.8 1.8 16.2 3s11.4 3 15.8 6.2c3.6 2.6 11 9.6 11 21.8zm113.8 8.8c-1.6 2.2-4.4 6-9.2 10.4-5.6 5.2-19 15-39.6 15-6.4 0-22.2-.8-35.8-13.4C354.2 123.8 350 110 350 94.4c0-8.4 1.2-16.4 4.4-24 4.4-10 16.8-28.4 45.8-28.4 22.4 0 34.2 11.6 39.4 19.2 4.6 7 9.2 19.2 9.8 38.6h-74c.4 3 1.4 9.2 6.4 15.2 3.4 4.2 9.4 9.6 21.8 9.6s19.6-5.8 22.8-9.2c.8-.8 2-2.4 3.4-4.6zM423 82.2s-.6-4.8-2-8.2c-2.2-4.8-7.4-12.8-20.4-12.8-5.2 0-8 1-10 1.8-11.2 4.6-13.8 15.8-14.4 19.2zM639.6 103c0 12.8-4 22.6-13.8 31-17 14.4-39.8 14.6-46.2 14.6-8.4 0-35.4-.4-55-21-2.4-2.6-5-6-6.8-9.2L540 103c6.2 9.2 17.8 21.2 43.8 21.2 1.2 0 6.2 0 10.4-1 3-.6 16.8-4.4 16.8-17.6 0-1.4-.2-5.2-2.6-8.4-4.8-6.4-17.6-8.2-24.6-9.8L567 83.6c-7.2-1.6-15-3.2-21.4-6.6-6.6-3.4-20.2-12.4-20.2-32.8 0-3.2.4-12.4 5.4-20.8C537.2 12.6 552.6.2 581.2.2c12.6 0 37.4 2 57 28.6L616.4 45c-4.4-7-14.4-21-36.6-21-1.4 0-19.2-.2-25 10.8-1.2 2.2-1.6 4.2-1.6 6.4 0 2.4.6 4.4 1.8 6.4 3.4 5.8 11.2 7.6 24.2 10.4l14.6 3.2c13.4 3 28.2 7 37.6 18 4 4.4 8.2 10.8 8.2 23.8zm67.8 41.2c-3.2.4-9 1.6-17.2 1.6-13.2 0-20-3.2-24-8-2-2.4-2.8-4.8-3-5.8-1-3.2-1.2-10.2-1.2-19V62h-14.6V45H662V9.4h24V45h21.4v17H686v45.4c0 4-.6 11.6 2.4 14.8 2.8 3.2 8.6 3 9.2 3 3.4 0 6.8-.4 9.8-1.2zm105.2.8h-24l-.2-10.2c-5 4.6-14.8 12.6-32.2 12.6-16.6 0-24.8-7.2-28.8-13.2-6.4-9.4-5.8-20.8-5.8-31.6V45h24.2v54c0 8.2-.4 18 8 22.8 3.2 2 7.8 3 11.6 3 11.6 0 17.4-7.6 19.4-11.2 4-7.6 3.8-18.4 3.8-26.2V45h24zm116.4 0h-23.8v-9.6c-1 1-1.8 2.2-2.8 3.2-3.8 3.6-12 9.4-25 9.4-3.4 0-10.6-.4-18.6-4.2-10.8-5-25.8-18-25.8-46.8 0-30.6 16.6-46.4 28-51.6 3.2-1.4 9-3.4 17.4-3.4 3.4 0 10.6.2 18.2 4.4 1.4.8 2.6 1.4 5 3.2 1.8 1.4 3.2 3.2 3.6 3.6V3.8H929zm-24-49.6c0-6.4-1-14.6-4.4-20.6-1.2-2.2-3.4-4.8-5.2-6.2-4-3.2-8.4-4.4-13.4-4.4-2 0-7.2.4-12.2 3.6-11.4 7.4-11.8 23.6-11.8 26.6 0 14.8 6.2 31.8 23.8 31.8 6.4 0 11.4-2 15.6-6.8 6.2-6.8 7.8-15 7.6-24zm74.2-66h-23.8V5.2h23.8zm0 115.6h-23.8V45h23.8zm120.2-22.4c-1.6 2.2-4.4 6-9.2 10.4-5.6 5.2-19 15-39.6 15-6.4 0-22.2-.8-35.8-13.4-11.4-10.8-15.6-24.6-15.6-40.2 0-8.4 1.2-16.4 4.4-24 4.4-10 16.8-28.4 45.8-28.4 22.4 0 34.2 11.6 39.4 19.2 4.6 7 9.2 19.2 9.8 38.6h-74c.4 3 1.4 9.2 6.4 15.2 3.4 4.2 9.4 9.6 21.8 9.6s19.6-5.8 22.8-9.2c.8-.8 2-2.4 3.4-4.6zm-27.2-40.4s-.6-4.8-2-8.2c-2.2-4.8-7.4-12.8-20.4-12.8-5.2 0-8 1-10 1.8-11.2 4.6-13.8 15.8-14.4 19.2zm130 31.6c0 4.8-1.2 9.4-3.4 13.6-4.8 9.2-17.2 20.6-41.6 20.6-18.8 0-32.2-6.4-38.4-10.2-3.4-2.2-6.6-4.8-9.6-7.8l18-14.6c.8 1 2 2.8 4.6 5 8.6 7.4 21.4 7.8 24.2 7.8 6 0 13-1.4 17-6 1.6-1.6 2.6-3.8 2.6-5.8 0-.8-.2-2.4-1.6-4.2-2.6-3.6-5.8-3.8-13.2-5.4-6.6-1.4-13.2-2.2-19.6-3.8-4.4-1.2-27.6-6.8-27.6-28.4 0-7.6 3.2-13.2 4.6-15.4 5-7.8 16.8-17.2 38.4-17.2 7.8 0 28 1.2 43 18.6l-17 15.8c-2-4.2-4.6-6.6-6.2-8-6.2-5.4-12.8-7.2-21-7.2-1 0-7.8 0-12.2 3-3.6 2.4-4.4 5.6-4.4 7.4.2 3.4 2.6 5.8 3.2 6.2 2.6 2 9.2 3.6 17.2 5 5.4 1 10.8 1.8 16.2 3s11.4 3 15.8 6.2c3.6 2.6 11 9.6 11 21.8z"/><filter id="a" width="107.7%" height="162%" x="-3.8%" y="-29.6%"><feOffset dy="2" in="SourceAlpha" result="shadowOffsetOuter1"/><feGaussianBlur in="shadowOffsetOuter1" result="shadowBlurOuter1" stdDeviation="15"/><feColorMatrix in="shadowBlurOuter1" values="0 0 0 0 0.9408 0 0 0 0 0.9504 0 0 0 0 0.96 0 0 0 1 0"/></filter></defs><g fill="none" fill-rule="evenodd" transform="translate(29 27)"><use fill="#000" filter="url(#a)" xlink:href="#b"/><use fill="#fff" xlink:href="#b"/></g></svg>