<svg xmlns="http://www.w3.org/2000/svg" width="1440" height="290"><mask id="a" fill="#fff"><path fill="none" d="M0 0h629v506H0z"/></mask><mask id="b" fill="#fff"><path fill="none" d="M0 0h575v386H0z"/></mask><mask id="c" fill="#fff"><path fill="none" d="M0 0h575v386H0z"/></mask><g fill="none" fill-rule="evenodd" stroke="#fa9300"><g mask="url(#a)" opacity=".146" transform="translate(-16 -53)"><path d="M-27.766 295.446s180.075 66.929 325.94-36.9c161.098-114.671 323.68-158.968 405.18-76.001"/><path d="M715.253 181.848c-26.807-27.29-75.869-51.827-128.038-49.708-85.917 3.411-189.822 58.802-285.975 132.715-54.805 42.13-116.058 43.692-162.95 44.059-3.664.028-7.323-.175-10.984-.244-89.265-1.66-163.925-13.857-163.925-13.857"/><path d="M727.152 181.15c-22.34-22.74-77.25-58.718-131.1-56.91-90.752 2.925-198.472 70.167-291.746 146.924-58.186 47.881-125.374 34.953-168.512 31.58-3.738-.292-7.46-.947-11.234-1.31-90.546-8.712-170.032-7.254-170.032-7.254"/><path d="M739.05 180.453c-17.87-18.193-78.63-65.61-134.16-64.11-95.588 2.436-206.91 81.825-297.519 161.13-61.455 53.789-134.768 25.71-174.072 19.103-3.826-.642-7.599-1.716-11.484-2.378-91.821-15.653-176.14-.653-176.14-.653"/><path d="M750.949 179.756c-13.404-13.644-80.01-72.502-137.22-71.312-100.424 1.948-215.161 93.7-303.292 175.338-64.6 59.84-144.14 15.995-179.635 6.625-3.91-1.031-7.734-2.48-11.733-3.446-93.11-22.496-182.248 5.952-182.248 5.952"/><path d="M762.847 179.059c-8.936-9.096-81.39-79.394-140.281-78.513-105.259 1.46-223.245 105.732-309.063 189.545-67.607 66.027-153.384 5.883-185.196-5.851-3.981-1.469-7.874-3.242-11.983-4.515-94.431-29.258-188.356 12.554-188.356 12.554"/><path d="M774.746 178.362c-4.468-4.549-82.772-86.286-143.343-85.714C521.31 93.62 400.218 210.528 316.57 296.4c-70.468 72.342-162.404-4.519-190.758-18.328-4.018-1.958-8.015-4-12.233-5.583-95.79-35.956-194.463 19.158-194.463 19.158"/><path d="M786.644 177.665s-84.152-93.178-146.403-92.916c-114.93.485-238.996 130.108-320.606 217.96-73.177 78.772-171.115-15.082-196.32-30.807-4.005-2.499-8.158-4.755-12.482-6.65-97.197-42.603-200.57 25.76-200.57 25.76"/></g><g mask="url(#b)" opacity=".146" transform="translate(990 7)"><path d="M-177.537 273.793S-21.17 124.25 122.102 193.554c158.232 76.543 310.416 67.718 375.65-63.438"/><path d="M508.623 126.403c-21.457 43.14-63.397 91.478-110.96 108.885-78.32 28.76-178.425 1.768-273.442-50.509-54.159-29.797-109.905-8.245-152.493 9.254-3.327 1.368-6.627 3.013-9.941 4.496-80.825 36.154-147.291 79.415-147.291 79.415"/><path d="M519.494 122.69c-17.881 35.95-63.927 100.312-112.98 118.735-82.657 31.198-187.47-8.615-280.174-65.42-57.83-35.436-117.44 5.85-156.229 26.417-3.361 1.782-6.67 3.996-10.055 5.878-81.247 45.14-153.527 73.794-153.527 73.794"/><path d="M530.363 118.979c-14.304 28.76-64.454 109.144-115 128.582-86.993 33.635-196.351-19.436-286.905-80.332C67.04 125.926 3.466 187.812-31.505 210.81c-3.403 2.238-6.714 4.975-10.17 7.26-81.675 53.992-159.763 68.176-159.763 68.176"/><path d="M541.233 115.267c-10.728 21.569-64.982 117.976-117.02 138.43-91.33 36.075-205.086-30.588-293.636-95.243C65.67 111.061-1.898 194.328-33.12 219.198c-3.44 2.74-6.758 5.948-10.286 8.642-82.124 62.73-165.998 62.555-165.998 62.555"/><path d="M552.103 111.554c-7.152 14.38-65.51 126.81-119.041 148.279-95.666 38.513-213.686-41.994-300.366-110.154-68.286-53.697-139.8 51.595-167.434 77.906-3.458 3.292-6.804 6.919-10.398 10.025-82.614 71.384-172.236 56.936-172.236 56.936"/><path d="M562.974 107.842c-3.576 7.19-66.04 135.642-121.063 158.127-100.002 40.95-222.168-53.594-307.096-125.065-71.546-60.21-146.891 67.58-171.169 95.069-3.44 3.896-6.853 7.885-10.514 11.408-83.142 79.975-178.47 51.315-178.47 51.315"/><path d="M573.844 104.13S507.276 248.605 450.76 272.106c-104.339 43.387-230.54-65.34-313.827-139.977C62.254 65.205-16.752 215.769-37.97 244.36c-3.373 4.544-6.904 8.85-10.628 12.789-83.72 88.523-184.707 45.697-184.707 45.697"/></g><g mask="url(#c)" opacity=".146" transform="translate(433 -104)"><path d="M-177.537 273.793S-21.17 124.25 122.102 193.554c158.232 76.543 310.416 67.718 375.65-63.438"/><path d="M508.623 126.403c-21.457 43.14-63.397 91.478-110.96 108.885-78.32 28.76-178.425 1.768-273.442-50.509-54.159-29.797-109.905-8.245-152.493 9.254-3.327 1.368-6.627 3.013-9.941 4.496-80.825 36.154-147.291 79.415-147.291 79.415"/><path d="M519.494 122.69c-17.881 35.95-63.927 100.312-112.98 118.735-82.657 31.198-187.47-8.615-280.174-65.42-57.83-35.436-117.44 5.85-156.229 26.417-3.361 1.782-6.67 3.996-10.055 5.878-81.247 45.14-153.527 73.794-153.527 73.794"/><path d="M530.363 118.979c-14.304 28.76-64.454 109.144-115 128.582-86.993 33.635-196.351-19.436-286.905-80.332C67.04 125.926 3.466 187.812-31.505 210.81c-3.403 2.238-6.714 4.975-10.17 7.26-81.675 53.992-159.763 68.176-159.763 68.176"/><path d="M541.233 115.267c-10.728 21.569-64.982 117.976-117.02 138.43-91.33 36.075-205.086-30.588-293.636-95.243C65.67 111.061-1.898 194.328-33.12 219.198c-3.44 2.74-6.758 5.948-10.286 8.642-82.124 62.73-165.998 62.555-165.998 62.555"/><path d="M552.103 111.554c-7.152 14.38-65.51 126.81-119.041 148.279-95.666 38.513-213.686-41.994-300.366-110.154-68.286-53.697-139.8 51.595-167.434 77.906-3.458 3.292-6.804 6.919-10.398 10.025-82.614 71.384-172.236 56.936-172.236 56.936"/><path d="M562.974 107.842c-3.576 7.19-66.04 135.642-121.063 158.127-100.002 40.95-222.168-53.594-307.096-125.065-71.546-60.21-146.891 67.58-171.169 95.069-3.44 3.896-6.853 7.885-10.514 11.408-83.142 79.975-178.47 51.315-178.47 51.315"/><path d="M573.844 104.13S507.276 248.605 450.76 272.106c-104.339 43.387-230.54-65.34-313.827-139.977C62.254 65.205-16.752 215.769-37.97 244.36c-3.373 4.544-6.904 8.85-10.628 12.789-83.72 88.523-184.707 45.697-184.707 45.697"/></g></g></svg>