<svg xmlns="http://www.w3.org/2000/svg" width="492" height="561" viewBox="0 0 492 561"><g fill="none" fill-rule="evenodd"><path fill="#f9fafb" d="M-30.289 2.19l349.552 74.017c87.708 18.571 143.754 104.728 125.183 192.436a162.33 162.33 0 0 1-69.648 102.024L127.802 533.013C79.076 565.04 17.3 569.741-35.71 545.457z"/><g fill="#feb563" transform="translate(-156 -95)"><circle cx="374" cy="286" r="2"/><circle cx="442" cy="286" r="2"/><circle cx="510" cy="286" r="2"/><circle cx="578" cy="286" r="2"/><circle cx="646" cy="286" r="2"/><circle cx="340" cy="286" r="2"/><circle cx="408" cy="286" r="2"/><circle cx="476" cy="286" r="2"/><circle cx="544" cy="286" r="2"/><circle cx="612" cy="286" r="2"/></g><g fill="#feb563" transform="translate(-156 -95)"><circle cx="374" cy="354" r="2"/><circle cx="442" cy="354" r="2"/><circle cx="510" cy="354" r="2"/><circle cx="578" cy="354" r="2"/><circle cx="646" cy="354" r="2"/><circle cx="340" cy="354" r="2"/><circle cx="408" cy="354" r="2"/><circle cx="476" cy="354" r="2"/><circle cx="544" cy="354" r="2"/><circle cx="612" cy="354" r="2"/></g><g fill="#ffac50"><g transform="translate(-156 -95)"><circle cx="374" cy="422" r="2"/><circle cx="442" cy="422" r="2"/><circle cx="510" cy="422" r="2"/><circle cx="578" cy="422" r="2"/><circle cx="646" cy="422" r="2"/><circle cx="340" cy="422" r="2"/><circle cx="408" cy="422" r="2"/><circle cx="476" cy="422" r="2"/><circle cx="544" cy="422" r="2"/><circle cx="612" cy="422" r="2"/></g><g transform="translate(-156 -95)"><circle cx="374" cy="252" r="2"/><circle cx="442" cy="252" r="2"/><circle cx="510" cy="252" r="2"/><circle cx="578" cy="252" r="2"/><circle cx="646" cy="252" r="2"/><circle cx="340" cy="252" r="2"/><circle cx="408" cy="252" r="2"/><circle cx="476" cy="252" r="2"/><circle cx="544" cy="252" r="2"/><circle cx="612" cy="252" r="2"/></g><g transform="translate(-156 -95)"><circle cx="374" cy="320" r="2"/><circle cx="442" cy="320" r="2"/><circle cx="510" cy="320" r="2"/><circle cx="578" cy="320" r="2"/><circle cx="646" cy="320" r="2"/><circle cx="340" cy="320" r="2"/><circle cx="408" cy="320" r="2"/><circle cx="476" cy="320" r="2"/><circle cx="544" cy="320" r="2"/><circle cx="612" cy="320" r="2"/></g><g transform="translate(-156 -95)"><circle cx="374" cy="388" r="2"/><circle cx="442" cy="388" r="2"/><circle cx="510" cy="388" r="2"/><circle cx="578" cy="388" r="2"/><circle cx="646" cy="388" r="2"/><circle cx="340" cy="388" r="2"/><circle cx="408" cy="388" r="2"/><circle cx="476" cy="388" r="2"/><circle cx="544" cy="388" r="2"/><circle cx="612" cy="388" r="2"/></g></g><g fill="#feb563" transform="translate(-156 -95)"><circle cx="172" cy="286" r="2"/><circle cx="240" cy="286" r="2"/><circle cx="308" cy="286" r="2"/><circle cx="206" cy="286" r="2"/><circle cx="274" cy="286" r="2"/></g><g fill="#feb563" transform="translate(-156 -95)"><circle cx="172" cy="354" r="2"/><circle cx="240" cy="354" r="2"/><circle cx="308" cy="354" r="2"/><circle cx="206" cy="354" r="2"/><circle cx="274" cy="354" r="2"/></g><g fill="#ffac50" transform="translate(-156 -95)"><circle cx="172" cy="422" r="2"/><circle cx="240" cy="422" r="2"/><circle cx="308" cy="422" r="2"/><circle cx="206" cy="422" r="2"/><circle cx="274" cy="422" r="2"/></g><g fill="#ffac50" transform="translate(-156 -95)"><circle cx="172" cy="252" r="2"/><circle cx="240" cy="252" r="2"/><circle cx="308" cy="252" r="2"/><circle cx="206" cy="252" r="2"/><circle cx="274" cy="252" r="2"/></g><g fill="#ffac50" transform="translate(-156 -95)"><circle cx="172" cy="320" r="2"/><circle cx="240" cy="320" r="2"/><circle cx="308" cy="320" r="2"/><circle cx="206" cy="320" r="2"/><circle cx="274" cy="320" r="2"/></g><g fill="#ffac50" transform="translate(-156 -95)"><circle cx="172" cy="388" r="2"/><circle cx="240" cy="388" r="2"/><circle cx="308" cy="388" r="2"/><circle cx="206" cy="388" r="2"/><circle cx="274" cy="388" r="2"/></g><g fill="#ffebd4"><path d="M85.231 303.429l-88.816 34.285L85.231 372v27.143L-33 351.429v-27.143L85.231 276zM276 448H149.773v-24.571H276z" opacity=".595"/><g font-family="Exo2.0-SemiBold, Exo 2.0" font-weight="500"><text font-size="200" letter-spacing="20" opacity=".596" transform="translate(-33 -95)"><tspan x="155" y="250">{</tspan></text><text font-size="238" letter-spacing="23.8" opacity=".595" transform="translate(-33 -95)"><tspan x="300" y="239">.</tspan></text></g></g></g></svg>