<svg xmlns="http://www.w3.org/2000/svg" width="833" height="751" viewBox="0 0 833 751"><linearGradient id="a" x1="101.494%" x2="5.758%" y1="18.324%" y2="36.801%"><stop offset="0" stop-color="#ffd13d"/><stop offset="1" stop-color="#ff962c"/></linearGradient><g fill="none" fill-rule="evenodd"><g fill="#d8d8d8" transform="translate(0 -40)"><circle cx="426" cy="436" r="2"/><circle cx="494" cy="436" r="2"/><circle cx="562" cy="436" r="2"/><circle cx="630" cy="436" r="2"/><circle cx="698" cy="436" r="2"/><circle cx="392" cy="436" r="2"/><circle cx="460" cy="436" r="2"/><circle cx="528" cy="436" r="2"/><circle cx="596" cy="436" r="2"/><circle cx="664" cy="436" r="2"/><circle cx="426" cy="504" r="2"/><circle cx="494" cy="504" r="2"/><circle cx="562" cy="504" r="2"/><circle cx="630" cy="504" r="2"/><circle cx="698" cy="504" r="2"/><circle cx="392" cy="504" r="2"/><circle cx="460" cy="504" r="2"/><circle cx="528" cy="504" r="2"/><circle cx="596" cy="504" r="2"/><circle cx="664" cy="504" r="2"/><circle cx="426" cy="572" r="2"/><circle cx="494" cy="572" r="2"/><circle cx="562" cy="572" r="2"/><circle cx="630" cy="572" r="2"/><circle cx="698" cy="572" r="2"/><circle cx="392" cy="572" r="2"/><circle cx="460" cy="572" r="2"/><circle cx="528" cy="572" r="2"/><circle cx="596" cy="572" r="2"/><circle cx="664" cy="572" r="2"/><circle cx="426" cy="640" r="2"/><circle cx="494" cy="640" r="2"/><circle cx="562" cy="640" r="2"/><circle cx="630" cy="640" r="2"/><circle cx="698" cy="640" r="2"/><circle cx="392" cy="640" r="2"/><circle cx="460" cy="640" r="2"/><circle cx="528" cy="640" r="2"/><circle cx="596" cy="640" r="2"/><circle cx="664" cy="640" r="2"/><circle cx="426" cy="402" r="2"/><circle cx="494" cy="402" r="2"/><circle cx="562" cy="402" r="2"/><circle cx="630" cy="402" r="2"/><circle cx="698" cy="402" r="2"/><circle cx="392" cy="402" r="2"/><circle cx="460" cy="402" r="2"/><circle cx="528" cy="402" r="2"/><circle cx="596" cy="402" r="2"/><circle cx="664" cy="402" r="2"/><circle cx="426" cy="470" r="2"/><circle cx="494" cy="470" r="2"/><circle cx="562" cy="470" r="2"/><circle cx="630" cy="470" r="2"/><circle cx="698" cy="470" r="2"/><circle cx="392" cy="470" r="2"/><circle cx="460" cy="470" r="2"/><circle cx="528" cy="470" r="2"/><circle cx="596" cy="470" r="2"/><circle cx="664" cy="470" r="2"/><circle cx="426" cy="538" r="2"/><circle cx="494" cy="538" r="2"/><circle cx="562" cy="538" r="2"/><circle cx="630" cy="538" r="2"/><circle cx="698" cy="538" r="2"/><circle cx="392" cy="538" r="2"/><circle cx="460" cy="538" r="2"/><circle cx="528" cy="538" r="2"/><circle cx="596" cy="538" r="2"/><circle cx="664" cy="538" r="2"/><circle cx="426" cy="606" r="2"/><circle cx="494" cy="606" r="2"/><circle cx="562" cy="606" r="2"/><circle cx="630" cy="606" r="2"/><circle cx="698" cy="606" r="2"/><circle cx="392" cy="606" r="2"/><circle cx="460" cy="606" r="2"/><circle cx="528" cy="606" r="2"/><circle cx="596" cy="606" r="2"/><circle cx="664" cy="606" r="2"/></g><path fill="url(#a)" d="M1.73 68.784c-8.027 41.556 12.426 83.406 50.145 102.604l223.852 113.937a400 400 0 0 0 2.45 1.236L487.334 391.22c49.264 24.65 69.217 84.57 44.566 133.835a99.744 99.744 0 0 1-7.015 11.886c-29.432 42.795-18.598 101.346 24.197 130.777a94.043 94.043 0 0 0 16.155 8.914l248.987 107.012c95.588 41.083 206.383-3.102 247.466-98.69a188.387 188.387 0 0 0 9.169-122.093L947.038 89.818c-11.33-43.283-50.031-73.773-94.763-74.658L86.749.017C45.453-.8 9.563 28.229 1.73 68.784z" transform="translate(0 -40)"/></g></svg>