<svg xmlns="http://www.w3.org/2000/svg" width="1312" height="801" viewBox="0 0 1312 801"><linearGradient id="a" x1="4.015%" x2="98.925%" y1="25.543%" y2="25.543%"><stop offset="0" stop-color="#ff962c"/><stop offset="1" stop-color="#ffd13d"/></linearGradient><g fill="none" fill-rule="evenodd"><g fill="#d8d8d8" fill-rule="nonzero" transform="translate(-1)"><circle cx="427" cy="436" r="2"/><circle cx="495" cy="436" r="2"/><circle cx="563" cy="436" r="2"/><circle cx="631" cy="436" r="2"/><circle cx="699" cy="436" r="2"/><circle cx="393" cy="436" r="2"/><circle cx="461" cy="436" r="2"/><circle cx="529" cy="436" r="2"/><circle cx="597" cy="436" r="2"/><circle cx="665" cy="436" r="2"/><circle cx="427" cy="504" r="2"/><circle cx="495" cy="504" r="2"/><circle cx="563" cy="504" r="2"/><circle cx="631" cy="504" r="2"/><circle cx="699" cy="504" r="2"/><circle cx="393" cy="504" r="2"/><circle cx="461" cy="504" r="2"/><circle cx="529" cy="504" r="2"/><circle cx="597" cy="504" r="2"/><circle cx="665" cy="504" r="2"/><circle cx="427" cy="572" r="2"/><circle cx="495" cy="572" r="2"/><circle cx="563" cy="572" r="2"/><circle cx="631" cy="572" r="2"/><circle cx="699" cy="572" r="2"/><circle cx="393" cy="572" r="2"/><circle cx="461" cy="572" r="2"/><circle cx="529" cy="572" r="2"/><circle cx="597" cy="572" r="2"/><circle cx="665" cy="572" r="2"/><circle cx="427" cy="640" r="2"/><circle cx="495" cy="640" r="2"/><circle cx="563" cy="640" r="2"/><circle cx="631" cy="640" r="2"/><circle cx="699" cy="640" r="2"/><circle cx="393" cy="640" r="2"/><circle cx="461" cy="640" r="2"/><circle cx="529" cy="640" r="2"/><circle cx="597" cy="640" r="2"/><circle cx="665" cy="640" r="2"/><circle cx="427" cy="402" r="2"/><circle cx="495" cy="402" r="2"/><circle cx="563" cy="402" r="2"/><circle cx="631" cy="402" r="2"/><circle cx="699" cy="402" r="2"/><circle cx="393" cy="402" r="2"/><circle cx="461" cy="402" r="2"/><circle cx="529" cy="402" r="2"/><circle cx="597" cy="402" r="2"/><circle cx="665" cy="402" r="2"/><circle cx="427" cy="470" r="2"/><circle cx="495" cy="470" r="2"/><circle cx="563" cy="470" r="2"/><circle cx="631" cy="470" r="2"/><circle cx="699" cy="470" r="2"/><circle cx="393" cy="470" r="2"/><circle cx="461" cy="470" r="2"/><circle cx="529" cy="470" r="2"/><circle cx="597" cy="470" r="2"/><circle cx="665" cy="470" r="2"/><circle cx="427" cy="538" r="2"/><circle cx="495" cy="538" r="2"/><circle cx="563" cy="538" r="2"/><circle cx="631" cy="538" r="2"/><circle cx="699" cy="538" r="2"/><circle cx="393" cy="538" r="2"/><circle cx="461" cy="538" r="2"/><circle cx="529" cy="538" r="2"/><circle cx="597" cy="538" r="2"/><circle cx="665" cy="538" r="2"/><circle cx="427" cy="606" r="2"/><circle cx="495" cy="606" r="2"/><circle cx="563" cy="606" r="2"/><circle cx="631" cy="606" r="2"/><circle cx="699" cy="606" r="2"/><circle cx="393" cy="606" r="2"/><circle cx="461" cy="606" r="2"/><circle cx="529" cy="606" r="2"/><circle cx="597" cy="606" r="2"/><circle cx="665" cy="606" r="2"/></g><path fill="url(#a)" d="M2.73 70.138C10.604 29.416 46.252 0 87.728 0H1312.79v799.965c-233.926.774-375.747.774-425.464 0-24.01-.373-48.348-5.344-71.78-15.404L566.405 677.59a93.936 93.936 0 0 1-16.205-8.942c-42.732-29.418-53.526-87.907-24.108-130.64a99.628 99.628 0 0 0 7.052-11.947c24.602-49.216 4.648-109.058-44.568-133.66l-209.291-104.62c-.545-.272-76.025-38.647-226.438-115.126-37.7-19.17-58.146-60.992-50.117-102.517z" transform="translate(-1)"/></g></svg>