<svg xmlns="http://www.w3.org/2000/svg" width="96" height="64" viewBox="0 0 96 64"><g fill="none" fill-rule="evenodd"><path fill="#cfd2d4" d="M1.8 26.34v7.406c0 .588.21.798.826.798h3.36l.07 1.358c-1.218.112-2.534.126-3.836.126-1.61 0-2.17-.84-2.17-2.002V26.34zm13.132 8.246l.084 1.33c-1.274.112-2.842.112-4.256.112-1.274 0-2.058-.7-2.072-1.834v-6.048c.014-1.134.812-1.834 2.072-1.834 1.414 0 2.982 0 4.256.112l-.084 1.344h-3.78c-.504 0-.7.21-.7.812v1.694h3.962v1.344h-3.962v2.156c0 .602.196.812.7.812zm8.358-1.316h-3.584L18.908 36h-1.792l2.898-9.198a.63.63 0 0 1 .63-.462h1.708a.63.63 0 0 1 .63.462L25.88 36h-1.792zm-.42-1.442l-.966-3.332c-.07-.266-.168-.56-.21-.826h-.378l-.224.826-.966 3.332zM35.652 36H33.79l-.77-2.996c-.196-.63-.532-.868-1.12-.868l-1.736-.014V36h-1.736v-9.66c1.106-.112 1.862-.126 3.514-.126 2.38 0 3.36.63 3.36 2.828 0 1.442-.476 2.268-1.806 2.436v.07c.476.112 1.078.504 1.288 1.428zm-5.488-5.306H31.9c1.232-.014 1.624-.35 1.624-1.54s-.392-1.498-1.624-1.498h-1.736zm16.324-4.354v9.016c0 .42-.224.644-.644.644h-1.386c-.378 0-.574-.168-.728-.532l-2.716-5.922c-.182-.392-.476-.994-.574-1.442h-.168c.07.49.084.98.084 1.456V36h-1.722v-9.016c0-.42.238-.644.658-.644h1.358c.378 0 .56.168.728.532l2.632 5.754c.182.42.462 1.008.672 1.526h.168c-.042-.532-.07-1.05-.07-1.568V26.34zm15.708 0h1.806c.448 0 .672.238.686.686L65.08 36h-1.722l-.322-8.246h-.266l-1.666 6.426c-.098.378-.336.588-.728.588h-1.344c-.406 0-.644-.21-.742-.588l-1.694-6.426h-.238L56.05 36h-1.708l.364-8.974c.014-.448.238-.686.686-.686h1.82c.392 0 .616.196.714.588l1.372 5.236c.126.448.196.868.294 1.316h.21c.084-.448.168-.868.294-1.33l1.372-5.222c.098-.392.336-.588.728-.588zm9.884-.182c2.954 0 3.99 1.176 3.99 5.012s-1.036 5.012-3.99 5.012c-2.94 0-3.976-1.176-3.976-5.012s1.036-5.012 3.976-5.012zm0 1.498c-1.624 0-2.128.826-2.128 3.514s.504 3.514 2.128 3.514c1.638 0 2.142-.826 2.142-3.514s-.504-3.514-2.142-3.514zM86.514 36h-1.862l-.77-2.996c-.196-.63-.532-.868-1.12-.868l-1.736-.014V36H79.29v-9.66c1.106-.112 1.862-.126 3.514-.126 2.38 0 3.36.63 3.36 2.828 0 1.442-.476 2.268-1.806 2.436v.07c.476.112 1.078.504 1.288 1.428zm-5.488-5.306h1.736c1.232-.014 1.624-.35 1.624-1.54s-.392-1.498-1.624-1.498h-1.736zm14.63 3.892l.084 1.33c-1.274.112-2.842.112-4.256.112-1.274 0-2.058-.7-2.072-1.834v-6.048c.014-1.134.812-1.834 2.072-1.834 1.414 0 2.982 0 4.256.112l-.084 1.344h-3.78c-.504 0-.7.21-.7.812v1.694h3.962v1.344h-3.962v2.156c0 .602.196.812.7.812z"/><g fill="#ff982d" fill-rule="nonzero"><path d="M47 49a1 1 0 0 1 2 0v14a1 1 0 0 1-2 0zM47 1a1 1 0 0 1 2 0v14a1 1 0 0 1-2 0z"/><path d="M54.293 55.293a1 1 0 0 1 1.414 1.414l-7 7a1 1 0 0 1-1.414 0l-7-7a1 1 0 0 1 1.414-1.414L48 61.586z"/></g></g></svg>