<svg xmlns="http://www.w3.org/2000/svg" width="568" height="686" viewBox="0 0 568 686"><linearGradient id="a" x1="101.494%" x2="5.758%" y1="18.324%" y2="36.801%"><stop offset="0" stop-color="#ffd13d"/><stop offset="1" stop-color="#ff962c"/></linearGradient><g fill="url(#a)" fill-rule="evenodd" transform="translate(-247 -29)"><path d="M10.67 185.513L76.235 55.104C101.04 5.761 161.152-14.13 210.496 10.677l.423.214 198.143 100.797c.815.414 1.631.826 2.449 1.235l209.29 104.666c49.252 24.631 69.211 84.525 44.58 133.777a99.709 99.709 0 0 1-7.037 11.923c-35.978 52.285-23.088 123.797 28.88 160.23L787.7 593.96c28.978 20.315 36 60.274 15.685 89.251a64.077 64.077 0 0 1-1.682 2.29c-23.312 30.3-65.577 38.423-98.46 18.923L49.007 316.443c-45.187-26.797-61.934-83.992-38.336-130.93z"/><path d="M22.613 436.729l43.383-86.527c24.754-49.37 84.843-69.327 134.214-44.573l.618.312 144.966 73.946c.816.416 1.633.83 2.452 1.24l168.488 84.49c47.987 24.064 68.46 81.691 46.409 130.636-21.069 46.765-76.058 67.596-122.823 46.528a92.87 92.87 0 0 1-2.832-1.334l-230.87-113.52c-19.626-9.65-43.358-1.563-53.008 18.062a39.598 39.598 0 0 0-.156 34.625c6.164 12.826.763 28.22-12.064 34.384a25.766 25.766 0 0 1-27.366-3.192l-64.912-52.512C12.58 529.74 1.552 478.735 22.613 436.73z"/></g></svg>