<svg xmlns="http://www.w3.org/2000/svg" id="Layer_1" viewBox="0 0 32 32"><style>.st0{fill:#fe9c37}.st1{fill:#fff}</style><circle cx="16" cy="16" r="16" class="st0"/><path d="M21.1 13.8v.3c0 3.5-2.6 7.5-7.5 7.5-1.4 0-2.8-.4-4-1.2h.6c1.2 0 2.3-.4 3.3-1.1-1.1 0-2.1-.8-2.5-1.8.4.1.8.1 1.2 0-1.2-.2-2.1-1.3-2.1-2.6.3.2.8.3 1.2.3-1.2-.8-1.5-2.3-.8-3.5 1.3 1.6 3.3 2.6 5.4 2.7 0-.2-.1-.4-.1-.6 0-1.4 1.2-2.6 2.6-2.6.8 0 1.4.3 1.9.8.6-.1 1.2-.3 1.7-.6-.2.6-.6 1.1-1.2 1.4.5-.1 1-.2 1.5-.4-.3.6-.7 1-1.2 1.4z" class="st1"/></svg>